{
  "title": "Harry Potter and the Deathly Hallows Part 2 (2011) DVDRip XviD-M",
  "uid": 6752357,
  "size": 1580924074,
  "categoryP": "video",
  "categoryS": "movies",
  "magnet": "?xt=urn:btih:a5aab1aedfc42694ec4af2e6626dc75e590569ec&amp;dn=Harry+Potter+and+the+Deathly+Hallows+Part+2+%282011%29+DVDRip+XviD-M&amp;tr=udp%3A%2F%2Ftracker.openbittorrent.com%3A80&amp;tr=udp%3A%2F%2Fopen.demonii.com%3A1337&amp;tr=udp%3A%2F%2Ftracker.coppersurfer.tk%3A6969&amp;tr=udp%3A%2F%2Fexodus.desync.com%3A6969",
  "seeders": 116,
  "leechers": 12,
  "uploader": "extremezone",
  "files": -1,
  "time": 1318927325,
  "description": " &lt;a href=&quot;http://www.hotimg.com/direct/uYNuufq.jpg&quot; rel=&quot;nofollow&quot; target=&quot;_NEW&quot;&gt;http://www.hotimg.com/direct/uYNuufq.jpg&lt;/a&gt;\n\nScreens:\n &lt;a href=&quot;\nhttp://www.hotimg.com/direct/d53tKB8.jpg&quot; rel=&quot;nofollow&quot; target=&quot;_NEW&quot;&gt;\nhttp://www.hotimg.com/direct/d53tKB8.jpg&lt;/a&gt;\n &lt;a href=&quot;\nhttp://www.hotimg.com/direct/aXzxAZ7.jpg&quot; rel=&quot;nofollow&quot; target=&quot;_NEW&quot;&gt;\nhttp://www.hotimg.com/direct/aXzxAZ7.jpg&lt;/a&gt;\n &lt;a href=&quot;\nhttp://www.hotimg.com/direct/5764UTY.jpg&quot; rel=&quot;nofollow&quot; target=&quot;_NEW&quot;&gt;\nhttp://www.hotimg.com/direct/5764UTY.jpg&lt;/a&gt;\n &lt;a href=&quot;\nhttp://www.hotimg.com/direct/uqsxQvk.jpg&quot; rel=&quot;nofollow&quot; target=&quot;_NEW&quot;&gt;\nhttp://www.hotimg.com/direct/uqsxQvk.jpg&lt;/a&gt;\n\nAlternative:\n &lt;a href=&quot;\nhttp://www.postimg.com/image/50000/photo-49587.jpg&quot; rel=&quot;nofollow&quot; target=&quot;_NEW&quot;&gt;\nhttp://www.postimg.com/image/50000/photo-49587.jpg&lt;/a&gt;\n &lt;a href=&quot;\nhttp://www.postimg.com/image/50000/photo-49588.jpg&quot; rel=&quot;nofollow&quot; target=&quot;_NEW&quot;&gt;\nhttp://www.postimg.com/image/50000/photo-49588.jpg&lt;/a&gt;\n &lt;a href=&quot;\nhttp://www.postimg.com/image/50000/photo-49589.jpg&quot; rel=&quot;nofollow&quot; target=&quot;_NEW&quot;&gt;\nhttp://www.postimg.com/image/50000/photo-49589.jpg&lt;/a&gt;\n &lt;a href=&quot;\nhttp://www.postimg.com/image/50000/photo-49590.jpg&quot; rel=&quot;nofollow&quot; target=&quot;_NEW&quot;&gt;\nhttp://www.postimg.com/image/50000/photo-49590.jpg&lt;/a&gt;\n\nScreenCaps:\n &lt;a href=&quot;\nhttp://www.postimg.com/image/50000/photo-49591.jpg&quot; rel=&quot;nofollow&quot; target=&quot;_NEW&quot;&gt;\nhttp://www.postimg.com/image/50000/photo-49591.jpg&lt;/a&gt;\n\nHarry Potter and the Deathly Hallows Part 2 (2011) DVDRip XviD-MAX\nFormat                           : AVI\nFormat/Info                      : Audio Video Interleave\nFormat profile                   : OpenDML\nFile size                        : 1.46 GiB\nDuration                         : 2h 5mn\nOverall bit rate                 : 1 675 Kbps\nWriting application              : VirtualDubMod 1.5.10.2 (build 2542/release)\nWriting library                  : VirtualDubMod build 2542/release\nOriginal source form             : MAX TORRENTZ\nCopyright                        : SIGISMUNT\n\nVideo\nID                               : 0\nFormat                           : MPEG-4 Visual\nFormat profile                   : AdvancedSimple@L5\nFormat settings, BVOP            : No\nFormat settings, QPel            : No\nFormat settings, GMC             : No warppoints\nFormat settings, Matrix          : Custom\nCodec ID                         : XVID\nCodec ID/Hint                    : XviD\nDuration                         : 2h 5mn\nBit rate                         : 1 478 Kbps\nWidth                            : 672 pixels\nHeight                           : 288 pixels\nDisplay aspect ratio             : 2.35:1\nFrame rate                       : 29.970 fps\nResolution                       : 24 bits\nColorimetry                      : 4:2:0\nScan type                        : Progressive\nBits/(Pixel*Frame)               : 0.255\nStream size                      : 1.29 GiB (88%)\nWriting library                  : XviD 1.2.1 (UTC 2008-12-04)\n\nAudio\nID                               : 1\nFormat                           : MPEG Audio\nFormat version                   : Version 1\nFormat profile                   : Layer 3\nCodec ID                         : 55\nCodec ID/Hint                    : MP3\nDuration                         : 2h 5mn\nBit rate mode                    : Constant\nBit rate                         : 192 Kbps\nChannel(s)                       : 2 channels\nSampling rate                    : 48.0 KHz\nResolution                       : 16 bits\nStream size                      : 172 MiB (11%)\nAlignment                        : Aligned on interleaves\nInterleave, duration             : 511 ms (15.30 video frames)\nInterleave, preload duration     : 216 ms\n\nSource: DVDRip (perfect a/v/sync quality,sample included)\nThis torrent is not seedbox supported,please seed it to the MAX\n &lt;a href=&quot;\nhttp://www.imdb.com/title/tt1201607/&quot; rel=&quot;nofollow&quot; target=&quot;_NEW&quot;&gt;\nhttp://www.imdb.com/title/tt1201607/&lt;/a&gt;\n\nUploader Note: Video is pretty dark in some places as all latest hp parts,please\nadd more brightness or contrast from your monitor if you need it\n\nNote:If you have something to offer as early releases,seedboxes,links,accounts,etc\nplease contact us on piratepedia[@]msn/gmail.com or our website torentz 3xforum ro\n\nHarry Potter and the Deathly Hallows Part 2 (2011) DVDRip XviD-MAX Torrent Free Download\n &lt;a href=&quot;\nhttp://thepiratebay.se/user/extremezone/0/7&quot; rel=&quot;nofollow&quot; target=&quot;_NEW&quot;&gt;\nhttp://thepiratebay.se/user/extremezone/0/7&lt;/a&gt;\n\nHow To Get Your Maxspeed (uTorrent)\n\nTorrent Client - Preferences - Bandwidth - Number of connections - Set aprox. 500 for each \nTorrent Client - Preferences - BiTorrent - Protocol Encryption - Forced\nBandwidth Allocation - High (Set download/upload limit - Unlimited)\nStop Other Active Torrents - Start downloading and wait for connections.\nEnjoy and Seed for at least 1:1 ratio. Don't forget to say thanks/leave reviews.\nBefore downloading you should check/google search sample &quot;release name&quot;&quot;sample&quot;.\nGreets to all actual/future p2p/scene QUALITY groups and affiliate websites.\nDon't trust IMDb robot or bad ratings,always watch some trailers first.\nIgnore stupid comments/fake/mislabeled/no-DVDrips/CAM/TS/RAR uploads.\nPlease spread this release/torrent to your friends/forums/etc.\nIf you need translation subs visit some subtitles sites.\nReport if you see online streaming or other spam links.\nRecommended movie player VLC PLAYER.",
  "parsed": {
    "xt": "urn:btih:a5aab1aedfc42694ec4af2e6626dc75e590569ec",
    "dn": "Harry Potter and the Deathly Hallows Part 2 (2011) DVDRip XviD-M",
    "tr": [
      "udp://exodus.desync.com:6969",
      "udp://open.demonii.com:1337",
      "udp://tracker.coppersurfer.tk:6969",
      "udp://tracker.openbittorrent.com:80"
    ],
    "infoHash": "a5aab1aedfc42694ec4af2e6626dc75e590569ec",
    "infoHashBuffer": {
      "type": "Buffer",
      "data": [
        165,
        170,
        177,
        174,
        223,
        196,
        38,
        148,
        236,
        74,
        242,
        230,
        98,
        109,
        199,
        94,
        89,
        5,
        105,
        236
      ]
    },
    "name": "Harry Potter and the Deathly Hallows Part 2 (2011) DVDRip XviD-M",
    "announce": [
      "udp://exodus.desync.com:6969",
      "udp://open.demonii.com:1337",
      "udp://tracker.coppersurfer.tk:6969",
      "udp://tracker.openbittorrent.com:80"
    ],
    "urlList": []
  },
  "previous": 6,
  "peers": 22,
  "last_updated": "2016-12-27T09:15:53.860Z"
}